<svg xmlns="http://www.w3.org/2000/svg" width="2500" height="801" viewBox="0 0 2500 801"><path fill="#111820" stroke="#FFF" stroke-miterlimit="10" d="M2454.354 721.802l45.646 79.06v-2l-44.492-77.06H2499v-1h-44.07l-45.726-79.2H2499v-1h-90.373l-45.727-79.2H2499v-1h-136.677l-45.727-79.2H2499v-1h-182.98l-45.727-79.2H2499v-1h-228.706l45.727-79.2H2499v-1h-182.402l45.727-79.2H2499v-1h-136.1l45.728-79.2H2499v-1h-89.795l45.727-79.2H2499v-1h-43.49L2500 2.14V.142L2454.355 79.2H2362.9L2408.625 0h-1.153l-45.727 79.2h-91.456L2316.017 0h-1.153l-45.727 79.2h-91.456L2223.408 0h-1.153l-45.727 79.2h-91.455L2130.798 0h-1.153l-45.436 78.695L2038.772 0h-1.738L1991.6 78.695 1946.164 0h-1.738l-45.436 78.695L1853.555 0h-1.738l-45.436 78.695L1760.946 0h-1.738l-45.436 78.695L1668.337 0h-1.738l-45.436 78.695L1575.727 0h-1.738l-45.437 78.695L1483.117 0h-1.738l-45.437 78.695L1390.508 0h-1.738l-45.436 78.695L1297.898 0h-1.738l-45.436 78.695L1205.29 0h-1.74l-45.435 78.695L1112.68 0h-1.738l-45.436 78.695L1020.07 0h-1.738l-45.436 78.695L927.46 0h-1.737l-45.436 78.695L834.852 0h-1.738l-45.436 78.695L742.242 0h-1.738l-45.436 78.695L649.634 0h-1.74L602.46 78.695 557.023 0h-1.74L509.85 78.695 464.415 0h-1.74L417.24 78.695 371.806 0h-1.155l45.728 79.2h-91.455L279.196 0h-1.155l45.728 79.2h-91.455L186.587 0h-1.155l45.727 79.2h-91.456L93.978 0h-1.155l45.726 79.2H47.094L1.368 0H.213L45.94 79.2H-1v1h47.517l45.727 79.2H-1v1h93.82l45.728 79.2H-1v1h140.125l45.726 79.2H-1v1h186.43l45.726 79.2H-1v1h232.156l-45.727 79.2H-1v1h185.853l-45.727 79.2H-1v1h139.548L92.82 640.6H-1v1h93.245l-45.727 79.2H-1v1h46.94L.215 801H1.37l45.726-79.198h91.454L92.825 801h1.155l45.726-79.198h91.455L185.435 801h1.155l45.725-79.198h91.455L278.043 801h1.155l45.726-79.198h91.455L370.652 801h1.155l45.433-78.69L462.674 801h1.744l45.433-78.69L555.282 801h1.744l45.433-78.69L647.89 801h1.744l45.433-78.69L740.5 801h1.745l45.433-78.69L833.11 801h1.744l45.433-78.69L925.72 801h1.744l45.433-78.69L1018.33 801h1.743l45.433-78.69 45.432 78.69h1.744l45.433-78.69 45.433 78.69h1.744l45.433-78.69 45.432 78.69h1.744l45.434-78.69 45.433 78.69h1.744l45.434-78.69 45.432 78.69h1.744l45.433-78.69 45.432 78.69h1.744l45.432-78.69 45.434 78.69h1.742l45.434-78.69 45.433 78.69h1.742l45.434-78.69 45.434 78.69h1.742l45.434-78.69 45.434 78.69h1.742l45.434-78.69 45.433 78.69h1.742l45.434-78.69 45.433 78.69h1.153l-45.726-79.198h91.455L2222.252 801h1.153l-45.726-79.198h91.454L2314.86 801h1.154l-45.726-79.198h91.455L2407.47 801h1.154l-45.726-79.198h91.456zm-46.88-81.2h-91.456l-45.727-79.2h91.456l45.727 79.2zm-415.01-79.2h90.882l-45.44 78.705-45.443-78.706zm90.875 159.4h-90.87l45.435-78.694 45.434 78.694zm-183.486-159.4h90.883l-45.44 78.705-45.443-78.706zm90.875 159.4h-90.87l45.435-78.694 45.434 78.694zm-183.486-159.4h90.883l-45.44 78.705-45.443-78.706zm90.876 159.4h-90.87l45.436-78.694 45.434 78.694zm-183.485-159.4h90.883l-45.44 78.705-45.443-78.706zm90.876 159.4h-90.868l45.435-78.694 45.434 78.694zm-183.485-159.4h90.883l-45.44 78.705-45.443-78.706zm90.876 159.4h-90.868l45.435-78.694 45.434 78.694zm-183.484-159.4h90.883l-45.442 78.705-45.442-78.706zm90.876 159.4h-90.87l45.436-78.694 45.434 78.694zm-183.485-159.4h90.883l-45.44 78.705-45.443-78.706zm90.876 159.4h-90.87l45.436-78.694 45.433 78.694zm-183.486-159.4h90.883l-45.44 78.705-45.443-78.706zm90.876 159.4h-90.87l45.436-78.694 45.433 78.694zm-183.485-159.4h90.883l-45.44 78.705-45.442-78.706zm90.876 159.4h-90.87l45.436-78.694 45.434 78.694zm-183.485-159.4h90.882l-45.44 78.705-45.443-78.706zm90.874 159.4h-90.87l45.436-78.694 45.434 78.694zm-183.485-159.4h90.882l-45.44 78.705-45.443-78.706zm90.875 159.4h-90.87l45.436-78.694 45.435 78.694zm-183.485-159.4h90.883l-45.44 78.705L973.76 561.4zm90.876 159.4h-90.87l45.436-78.694 45.434 78.694zm-183.486-159.4h90.883l-45.44 78.705L881.15 561.4zm90.876 159.4h-90.87l45.436-78.694 45.434 78.694zm-183.485-159.4h90.884l-45.44 78.705L788.54 561.4zm90.877 159.4h-90.87l45.436-78.694 45.434 78.694zm-183.485-159.4h90.883l-45.44 78.705L695.93 561.4zm90.876 159.4h-90.87l45.436-78.694 45.434 78.694zm-183.485-159.4h90.882l-45.44 78.705-45.442-78.706zm90.875 159.4h-90.87l45.435-78.694 45.435 78.694zm-183.485-159.4h90.882l-45.44 78.705-45.442-78.706zm90.876 159.4h-90.87l45.434-78.694 45.435 78.694zm-183.486-159.4h90.882l-45.44 78.705-45.442-78.706zm90.876 159.4h-90.87l45.435-78.694 45.435 78.694zm.005-481.2h-90.88l45.44-78.705 45.44 78.704zM418.11 80.2h90.87l-45.436 78.697L418.11 80.2zm183.485 159.4h-90.88l45.44-78.703 45.44 78.704zM510.72 80.2h90.87l-45.436 78.697L510.72 80.2zm183.484 159.4h-90.88l45.44-78.703 45.44 78.704zM603.328 80.2h90.87l-45.435 78.697L603.328 80.2zm183.485 159.4h-90.88l45.44-78.703 45.44 78.704zM695.938 80.2h90.87l-45.435 78.697L695.938 80.2zm183.485 159.4h-90.88l45.44-78.703 45.44 78.704zM788.547 80.2h90.87l-45.435 78.697L788.547 80.2zm183.485 159.4h-90.88l45.44-78.703 45.44 78.704zM881.156 80.2h90.87l-45.435 78.697L881.157 80.2zm183.486 159.4h-90.88l45.44-78.703 45.44 78.704zM973.766 80.2h90.87l-45.435 78.697L973.767 80.2zm183.485 159.4h-90.88l45.44-78.703 45.44 78.704zm-90.875-159.4h90.87l-45.435 78.697-45.435-78.697zm183.485 159.4h-90.88l45.44-78.703 45.44 78.704zm-90.876-159.4h90.87l-45.435 78.697-45.436-78.697zm183.486 159.4h-90.88l45.44-78.703 45.44 78.704zm-90.876-159.4h90.87l-45.435 78.697-45.436-78.697zm183.485 159.4h-90.882l45.44-78.703 45.44 78.704zm-90.877-159.4h90.87l-45.435 78.697-45.435-78.697zm183.485 159.4h-90.88l45.44-78.703 45.44 78.704zm-90.876-159.4h90.87l-45.435 78.697-45.435-78.697zm183.486 159.4h-90.88l45.44-78.703 45.44 78.704zm-90.876-159.4h90.87l-45.435 78.697-45.435-78.697zm183.485 159.4h-90.88l45.44-78.703 45.44 78.704zM1622.03 80.2h90.872l-45.436 78.697L1622.03 80.2zm183.487 159.4h-90.88l45.44-78.703 45.44 78.704zM1714.64 80.2h90.872l-45.436 78.697L1714.64 80.2zm183.486 159.4h-90.88l45.44-78.703 45.44 78.704zM1807.25 80.2h90.87l-45.435 78.697L1807.25 80.2zm183.485 159.4h-90.88l45.44-78.703 45.44 78.704zM1899.86 80.2h90.87l-45.436 78.697L1899.86 80.2zm183.485 159.4h-90.88l45.44-78.703 45.44 78.704zM1992.47 80.2h90.87l-45.436 78.697L1992.47 80.2zm91.74 319.302l-45.44-78.7h90.878l-45.44 78.7zm46.304-78.202l45.438 78.7h-90.877l45.44-78.7zm-47.17 78.7h-90.878l45.438-78.7 45.44 78.7zm-91.744-.498l-45.438-78.7h90.877l-45.44 78.7zm-.867.5h-90.877l45.438-78.702 45.44 78.7zm-91.743-.5l-45.438-78.7h90.877l-45.44 78.7zm-.866.5h-90.877l45.438-78.702 45.44 78.7zm-91.743-.5l-45.437-78.7h90.877l-45.44 78.7zm-.865.5h-90.877l45.438-78.702 45.44 78.7zm-91.744-.5l-45.437-78.7h90.877l-45.44 78.7zm-.865.5h-90.877l45.438-78.702 45.44 78.7zm-91.743-.5l-45.438-78.7h90.877l-45.438 78.7zm-.866.5h-90.877l45.437-78.702 45.44 78.7zm-91.743-.5l-45.438-78.7h90.877l-45.44 78.7zm-.866.5h-90.877l45.438-78.702 45.44 78.7zm-91.744-.5l-45.438-78.7h90.877l-45.44 78.7zm-.866.5H1344.2l45.438-78.702 45.44 78.7zm-91.743-.5l-45.438-78.7h90.877l-45.44 78.7zm-.866.5h-90.877l45.44-78.702 45.438 78.7zm-91.743-.5l-45.438-78.7h90.877l-45.44 78.7zm-.867.5h-90.877l45.44-78.702 45.438 78.7zm-91.743-.5l-45.438-78.7h90.877l-45.44 78.7zm-.866.5h-90.878l45.438-78.702 45.44 78.7zm-91.744-.5l-45.438-78.7h90.877l-45.44 78.7zm-.866.5h-90.877L1019.2 321.3l45.44 78.7zm-91.744-.5l-45.438-78.7h90.877l-45.44 78.7zm-.866.5h-90.877L926.59 321.3l45.44 78.7zm-91.743-.5l-45.438-78.7h90.876l-45.44 78.7zm-.866.5h-90.876l45.438-78.702 45.44 78.7zm-91.742-.5l-45.438-78.7h90.877l-45.44 78.7zm-.866.5h-90.877l45.438-78.702 45.44 78.7zm-91.744-.5l-45.438-78.7h90.877l-45.44 78.7zm-.866.5h-90.877l45.438-78.702 45.44 78.7zm-91.743-.5l-45.44-78.7H647.9l-45.44 78.7zm-.867.5h-90.877l45.438-78.702 45.44 78.7zm-91.743-.5l-45.438-78.7h90.877l-45.44 78.7zm-.867.5h-90.877l45.438-78.702 45.44 78.7zm-91.743-.5l-45.438-78.7h90.877l-45.44 78.7zm-.866.5h-90.877l45.438-78.702 45.44 78.7zm0 1l-45.438 78.7-45.44-78.7h90.88zm.866.5l45.438 78.7h-90.875l45.437-78.7zm.865-.5h90.88l-45.44 78.7-45.44-78.7zm91.745.5l45.438 78.7h-90.875l45.437-78.7zm.865-.5h90.88l-45.44 78.7-45.44-78.7zm91.744.5l45.437 78.7h-90.875l45.437-78.7zm.864-.5h90.88l-45.44 78.7-45.44-78.7zm91.744.5l45.438 78.7H649.63l45.438-78.7zm.866-.5h90.88l-45.44 78.7-45.44-78.7zm91.744.5l45.438 78.7H742.24l45.438-78.7zm.865-.5h90.88l-45.44 78.7-45.44-78.7zm91.744.5l45.438 78.7H834.85l45.437-78.7zm.865-.5h90.88l-45.44 78.7-45.44-78.7zm91.744.5l45.438 78.7H927.46l45.436-78.7zm.866-.5h90.88l-45.44 78.7-45.44-78.7zm91.744.5l45.438 78.7h-90.875l45.436-78.7zm.865-.5h90.88l-45.44 78.7-45.44-78.7zm91.745.5l45.438 78.7h-90.875l45.437-78.7zm.865-.5h90.88l-45.44 78.7-45.44-78.7zm91.745.5l45.438 78.7h-90.875l45.437-78.7zm.865-.5h90.88l-45.44 78.7-45.44-78.7zm91.744.5l45.438 78.7h-90.875l45.437-78.7zm.865-.5h90.878l-45.44 78.7-45.44-78.7zm91.743.5l45.438 78.7h-90.874l45.437-78.7zm.866-.5h90.878l-45.44 78.7-45.44-78.7zm91.743.5l45.438 78.7h-90.874l45.437-78.7zm.865-.5h90.88l-45.44 78.7-45.44-78.7zm91.744.5l45.438 78.7h-90.875l45.437-78.7zm.865-.5h90.88l-45.44 78.7-45.44-78.7zm91.744.5l45.44 78.7h-90.876l45.437-78.7zm.867-.5h90.88l-45.44 78.7-45.44-78.7zm91.744.5l45.44 78.7h-90.876l45.437-78.7zm.866-.5h90.88l-45.44 78.7-45.44-78.7zm91.744.5l45.438 78.7h-90.875l45.437-78.7zm.865-.5h90.88l-45.44 78.7-45.44-78.7zm91.745.5l45.438 78.7h-90.875l45.437-78.7zm.865-.5h90.88l-45.44 78.7-45.44-78.7zm91.744.5l45.437 78.7h-90.875l45.437-78.7zm.864-.5h90.88l-45.44 78.7-45.44-78.7zm91.744.5l45.438 78.7h-90.875l45.438-78.7zm-45.438-80.7h90.877l-45.438 78.7-45.44-78.7zm0-1l45.438-78.704 45.44 78.703h-90.88zm-.866-.502l-45.438-78.7h90.875l-45.436 78.7zm-.866.5h-90.88l45.44-78.702 45.44 78.703zm-91.744-.5l-45.438-78.7h90.875l-45.436 78.7zm-.865.5h-90.88l45.44-78.702 45.44 78.703zm-91.745-.5l-45.438-78.7h90.875l-45.437 78.7zm-.865.5h-90.88l45.44-78.702 45.44 78.703zm-91.744-.5l-45.438-78.7h90.875l-45.437 78.7zm-.866.5h-90.88l45.44-78.702 45.44 78.703zm-91.744-.5l-45.438-78.7h90.875l-45.437 78.7zm-.865.5h-90.878l45.44-78.702 45.44 78.703zm-91.743-.5l-45.438-78.7h90.874l-45.437 78.7zm-.865.5h-90.88l45.44-78.702 45.44 78.703zm-91.745-.5l-45.438-78.7h90.874l-45.437 78.7zm-.865.5h-90.88l45.44-78.702 45.44 78.703zm-91.744-.5l-45.438-78.7h90.875l-45.437 78.7zm-.865.5h-90.88l45.44-78.702 45.44 78.703zm-91.744-.5l-45.44-78.7h90.876l-45.437 78.7zm-.867.5h-90.88l45.44-78.702 45.44 78.703zm-91.744-.5l-45.44-78.7h90.876l-45.437 78.7zm-.866.5h-90.88l45.44-78.702 45.44 78.703zm-91.744-.5l-45.438-78.7h90.875l-45.437 78.7zm-.865.5h-90.88l45.44-78.702 45.44 78.703zm-91.744-.5l-45.437-78.7h90.875l-45.437 78.7zm-.865.5h-90.88l45.44-78.702 45.44 78.703zm-91.744-.5l-45.437-78.7h90.875l-45.437 78.7zm-.864.5h-90.88l45.44-78.702 45.44 78.703zm-91.744-.5l-45.438-78.7h90.875l-45.438 78.7zm-.865.5h-90.88l45.44-78.702 45.44 78.703zm-91.745-.5l-45.438-78.7h90.875l-45.438 78.7zm-.865.5h-90.88l45.44-78.702 45.44 78.703zm-91.744-.5l-45.438-78.7h90.875l-45.437 78.7zm-.865.5H649.63l45.44-78.702 45.438 78.703zm-91.744-.5l-45.438-78.7H694.2l-45.436 78.7zm-.866.5H557.02l45.44-78.702 45.438 78.703zm-91.744-.5l-45.438-78.7h90.875l-45.436 78.7zm-.865.5h-90.88l45.44-78.702 45.44 78.703zm-91.745-.5l-45.438-78.7h90.875l-45.437 78.7zm-.866.5H371.8l45.44-78.702 45.44 78.703zm-91.744-.5l-45.438-78.7h90.875l-45.437 78.7zm-.866.5h-90.878l45.44-78.702L370.07 319.8zm0 1l-45.44 78.702-45.437-78.7h90.876zm-.002 159.4h-90.875l45.438-78.698 45.438 78.7zm.003 1l-45.44 78.705-45.44-78.704h90.88zm.866.503l45.437 78.698H325.5l45.436-78.697zm.864-.502h90.88l-45.44 78.705L371.8 481.2zm91.745.503l45.437 78.698H418.11l45.435-78.697zm.864-.502h90.88l-45.44 78.705-45.44-78.704zm91.744.503L601.59 560.4H510.72l45.436-78.697zm.865-.502h90.88l-45.44 78.705-45.44-78.704zm91.744.503L694.2 560.4H603.33l45.436-78.697zm.864-.502h90.88l-45.44 78.705-45.44-78.704zm91.745.503L786.81 560.4h-90.873l45.436-78.697zm.864-.502h90.88l-45.44 78.705-45.44-78.704zm91.745.503L879.42 560.4h-90.874l45.436-78.697zm.865-.502h90.88l-45.44 78.705-45.44-78.704zm91.745.503L972.03 560.4h-90.874l45.436-78.697zm.864-.502h90.88l-45.44 78.705-45.44-78.704zm91.745.503l45.438 78.698h-90.873l45.436-78.697zm.865-.502h90.88l-45.44 78.705-45.44-78.704zm91.746.503l45.438 78.698h-90.873l45.436-78.697zm.865-.502h90.88l-45.44 78.705-45.44-78.704zm91.745.503l45.437 78.698h-90.873l45.436-78.697zm.864-.502h90.88l-45.44 78.705-45.44-78.704zm91.745.503l45.436 78.698h-90.873l45.436-78.697zm.864-.502h90.88l-45.44 78.705-45.44-78.704zm91.745.503l45.436 78.698h-90.873l45.436-78.697zm.863-.502h90.88l-45.44 78.705-45.44-78.704zm91.745.503l45.437 78.698h-90.873l45.436-78.697zm.864-.502h90.88l-45.44 78.705-45.44-78.704zm91.745.503l45.437 78.698h-90.873l45.437-78.697zm.865-.502h90.88l-45.44 78.705-45.44-78.704zm91.745.503l45.437 78.698h-90.873l45.437-78.697zm.864-.502h90.882l-45.44 78.705-45.44-78.704zm91.746.503l45.437 78.698h-90.873l45.436-78.697zm.864-.502h90.88l-45.44 78.705-45.44-78.704zm91.746.503l45.437 78.698h-90.873l45.436-78.697zm.864-.502h90.88l-45.44 78.705-45.44-78.704zm91.745.503l45.437 78.698h-90.873l45.435-78.697zm.864-.502h90.88l-45.44 78.705-45.44-78.704zm91.744.503l45.437 78.698h-90.872l45.436-78.697zm.865-.502h90.88l-45.44 78.705-45.44-78.704zm91.744.503l45.437 78.698h-90.872l45.436-78.697zm.864-.502h90.88l-45.44 78.705-45.44-78.704zm91.745.503l45.437 78.698h-90.873l45.436-78.697zM2177.683 401h90.88l-45.44 78.703-45.44-78.702zm.002-1l45.438-78.7 45.438 78.7h-90.875zm0-159.4h90.876l-45.437 78.7-45.437-78.7zm-.002-1l45.727-79.2h91.455l-45.727 79.2h-91.455zm-.865-.5l-45.437-78.7h90.874l-45.436 78.7zm-.864.5h-90.88l45.44-78.703 45.44 78.704zm-91.745-.5l-45.438-78.7h90.873l-45.436 78.7zm-92.61 0l-45.437-78.7h90.873l-45.436 78.7zm-92.61 0l-45.437-78.7h90.873l-45.436 78.7zm-92.61 0l-45.436-78.7h90.873l-45.436 78.7zm-92.61 0l-45.436-78.7h90.873l-45.436 78.7zm-92.608 0l-45.437-78.7h90.873l-45.436 78.7zm-92.61 0l-45.436-78.7h90.873l-45.437 78.7zm-92.61 0l-45.436-78.7h90.873l-45.437 78.7zm-92.608 0l-45.437-78.7h90.873l-45.436 78.7zm-92.61 0l-45.436-78.7h90.873l-45.435 78.7zm-92.61 0l-45.436-78.7h90.873l-45.435 78.7zm-92.608 0l-45.437-78.7h90.872l-45.436 78.7zm-92.61 0l-45.436-78.7h90.873l-45.437 78.7zm-92.61 0l-45.435-78.7h90.874l-45.437 78.7zm-92.608 0l-45.437-78.7h90.874l-45.436 78.7zm-92.61 0l-45.436-78.7h90.873l-45.437 78.7zm-92.61 0l-45.436-78.7h90.873l-45.436 78.7zm-92.608 0l-45.437-78.7h90.873l-45.436 78.7zm-92.61 0l-45.436-78.7h90.873l-45.437 78.7zm-.864.5h-90.88l45.44-78.703 45.44 78.704zm-91.745-.5l-45.436-78.7h90.873l-45.436 78.7zm-.863.5h-91.455l-45.727-79.2h91.455l45.727 79.2zm-.003 1l-45.438 78.7-45.438-78.7h90.876zm0 159.4H232.89l45.438-78.7 45.44 78.7zm.002 1l-45.44 78.703L232.89 401h90.878zm-.003 159.4H232.89l45.437-78.697 45.436 78.698zm.004 1l-45.727 79.2h-91.455l45.727-79.2h91.455zm.864.505l45.437 78.696h-90.87l45.434-78.695zm.865-.504h90.882l-45.44 78.707-45.442-78.706zm91.745.505l45.436 78.696h-90.87l45.434-78.695zm92.61 0l45.436 78.696h-90.87l45.434-78.695zm92.61 0l45.435 78.696h-90.87l45.434-78.695zm92.608 0l45.436 78.696h-90.87l45.434-78.695zm92.61 0l45.436 78.696h-90.87l45.434-78.695zm92.61 0l45.435 78.696h-90.87l45.434-78.695zm92.608 0l45.436 78.696h-90.87l45.434-78.695zm92.61 0l45.436 78.696h-90.87l45.434-78.695zm92.61 0l45.435 78.696h-90.87l45.435-78.695zm92.61 0l45.435 78.696h-90.87l45.435-78.695zm92.608 0l45.436 78.696h-90.87l45.434-78.695zm92.61 0l45.435 78.696h-90.872l45.435-78.695zm92.61 0l45.435 78.696h-90.872l45.435-78.695zm92.608 0l45.436 78.696h-90.87l45.434-78.695zm92.61 0l45.435 78.696h-90.87l45.434-78.695zm92.61 0l45.435 78.696h-90.87l45.434-78.695zm92.608 0l45.436 78.696h-90.87l45.434-78.695zm92.61 0l45.436 78.696h-90.87l45.434-78.695zm92.61 0l45.435 78.696h-90.87l45.434-78.695zm.862-.504h90.883l-45.44 78.707-45.443-78.706zm91.746.505l45.436 78.696h-90.87l45.434-78.695zm.864-.504h91.455l45.727 79.2h-91.455l-45.728-79.2zm183.487-1h-91.456l-45.727-79.2h91.455l45.727 79.2zm-46.305-80.2h-90.875l45.438-78.698 45.437 78.7zm-45.437-80.698l-45.438-78.7h90.877l-45.44 78.7zm46.015-79.7h-91.455l45.727-79.2h91.455l-45.727 79.2zm46.304-80.2h-91.455l45.727-79.2h91.454l-45.727 79.2zm.575-159.402h91.455l-45.727 79.2h-91.455l45.727-79.2zm-92.61 0h91.456l-45.727 79.2h-91.454l45.727-79.2zm-92.608 0h91.455l-45.728 79.2h-91.455l45.727-79.2zm-1.155 0l-45.437 78.697-45.435-78.697h90.87zm-46.3 79.2h-90.883l45.44-78.706 45.443 78.706zM2037.904.493l45.44 78.707h-90.882L2037.904.493zm-.863 158.907h-90.882l45.44-78.706 45.443 78.706zM1945.296.493l45.44 78.707h-90.882L1945.295.493zm-.863 158.907h-90.883l45.44-78.706 45.442 78.706zM1852.686.493l45.44 78.707h-90.882L1852.686.493zm-.864 158.907h-90.883l45.44-78.706 45.442 78.706zM1760.076.493l45.44 78.707h-90.882L1760.076.493zm-.863 158.907h-90.883l45.44-78.706 45.443 78.706zM1667.467.493l45.44 78.707h-90.883L1667.467.493zm-.863 158.907h-90.883l45.442-78.706 45.442 78.706zM1574.857.493L1620.3 79.2h-90.885L1574.857.493zm-.863 158.907h-90.883l45.442-78.706 45.442 78.706zM1482.248.493L1527.69 79.2h-90.885L1482.248.493zm-.863 158.907h-90.883l45.44-78.706 45.443 78.706zM1389.64.493l45.44 78.707h-90.884L1389.64.493zm-.865 158.907h-90.883l45.44-78.706 45.443 78.706zM1297.03.493l45.44 78.707h-90.884L1297.03.493zm-.864 158.907h-90.883l45.44-78.706 45.443 78.706zM1204.42.493l45.442 78.707h-90.885L1204.42.493zm-.863 158.907h-90.883l45.44-78.706 45.443 78.706zM1111.81.493l45.443 78.707h-90.885L1111.81.493zm-.863 158.907h-90.883l45.44-78.706 45.443 78.706zM1019.2.493l45.443 78.707h-90.885L1019.2.493zm-.862 158.907h-90.883l45.44-78.706 45.443 78.706zM926.592.493L972.034 79.2H881.15L926.59.493zM925.73 159.4h-90.884l45.44-78.706L925.73 159.4zM833.98.493L879.425 79.2H788.54L833.982.493zM833.12 159.4h-90.884l45.44-78.706L833.12 159.4zM741.372.493L786.815 79.2H695.93L741.373.493zM740.51 159.4h-90.882l45.44-78.706L740.51 159.4zM648.764.493L694.206 79.2h-90.884L648.764.493zM647.9 159.4h-90.882l45.44-78.706L647.9 159.4zM556.154.493L601.596 79.2h-90.884L556.154.493zM555.29 159.4h-90.88l45.44-78.706 45.44 78.706zM463.546.493L508.987 79.2h-90.884L463.545.493zM417.24 80.695l45.44 78.706H371.8l45.44-78.705zm-.87-.495l-45.435 78.697L325.5 80.2h90.87zm-92.025 0l45.727 79.2h-91.455L232.89 80.2h91.455zm-92.61 0l45.728 79.2h-91.455L140.28 80.2h91.456zm-184.063 0h91.455l45.727 79.2H93.398L47.672 80.2zm46.304 80.2h91.455l45.728 79.2h-91.455l-45.727-79.2zm46.303 80.2h91.454l45.726 79.2h-91.455l-45.726-79.2zm46.303 80.2h90.877l-45.438 78.702-45.44-78.7zm45.438 80.702l45.44 78.7h-90.876l45.437-78.7zm-46.013 79.7h91.455l-45.727 79.2H140.28l45.727-79.2zm-46.304 80.2h91.455l-45.727 79.2H93.978l45.726-79.2zm-.576 159.4H47.673l45.727-79.2h91.455l-45.728 79.2zm92.61 0h-91.455l45.727-79.2h91.454l-45.727 79.2zm92.61 0H232.89l45.728-79.2h91.455l-45.727 79.2zm1.154 0l45.436-78.694 45.435 78.694H325.5zm46.298-79.2h90.884L417.24 720.31 371.798 641.6zm91.747 158.908l-45.443-78.708h90.886l-45.443 78.708zm.863-158.908h90.884L509.85 720.31 464.408 641.6zm91.746 158.908l-45.443-78.708h90.887l-45.443 78.708zm.863-158.908H647.9l-45.44 78.707-45.443-78.708zm91.747 158.908l-45.443-78.708h90.886l-45.442 78.708zm.862-158.908h90.884l-45.442 78.707-45.442-78.708zm91.747 158.908l-45.442-78.708h90.886l-45.443 78.708zm.862-158.908h90.885l-45.442 78.707-45.443-78.708zm91.747 158.908l-45.442-78.708h90.885l-45.443 78.708zm.863-158.908h90.885l-45.442 78.707-45.443-78.708zm91.747 158.908l-45.442-78.708h90.885l-45.443 78.708zm.862-158.908h90.885l-45.443 78.707-45.443-78.708zM1019.2 800.51l-45.44-78.708h90.884L1019.2 800.51zm.863-158.908h90.885l-45.442 78.707-45.443-78.708zm91.748 158.908l-45.44-78.708h90.884l-45.443 78.708zm.863-158.908h90.885l-45.442 78.707-45.443-78.708zm91.747 158.908l-45.442-78.708h90.885l-45.443 78.708zm.862-158.908h90.885l-45.442 78.707-45.443-78.708zm91.747 158.908l-45.443-78.708h90.885l-45.443 78.708zm.862-158.908h90.885l-45.442 78.707-45.443-78.708zm91.747 158.908l-45.443-78.708h90.885l-45.443 78.708zm.86-158.908h90.886l-45.442 78.707L1390.5 641.6zm91.748 158.908l-45.442-78.708h90.885l-45.442 78.708zm.862-158.908h90.885l-45.442 78.707-45.443-78.708zm91.747 158.908l-45.442-78.708h90.885l-45.443 78.708zm.863-158.908h90.884l-45.44 78.707-45.444-78.708zm91.747 158.908l-45.442-78.708h90.886l-45.443 78.708zm.863-158.908h90.883l-45.44 78.707-45.443-78.708zm91.746 158.908l-45.443-78.708h90.887l-45.444 78.708zm.863-158.908h90.882l-45.44 78.707-45.443-78.708zm91.746 158.908l-45.443-78.708h90.887l-45.444 78.708zm.863-158.908h90.882l-45.44 78.707-45.443-78.708zm91.745 158.908l-45.443-78.708h90.887l-45.445 78.708zm.863-158.908h90.883l-45.44 78.707-45.442-78.708zm91.746 158.908l-45.443-78.708h90.888l-45.444 78.708zm46.305-80.2l-45.442-78.708h90.883l-45.44 78.707zm.87.492l45.434-78.694 45.435 78.694h-90.87zm92.023 0l-45.726-79.2h91.454l45.728 79.2h-91.455zm92.61 0l-45.728-79.2h91.455l45.727 79.2h-91.455zm46.882-79.2h91.456l45.728 79.2h-91.456l-45.727-79.2z"/></svg>